<svg xmlns="http://www.w3.org/2000/svg" width="100%" height="100%" viewBox="0 0 140 25.148">
  <g id="jcb-9ea981d20008c6545aa3afd1b3da9804" transform="translate(107.442)">
    <path id="Path_324" data-name="Path 324" d="M154.188,14.855h2.353a1.8,1.8,0,0,0,.281-.027,1.074,1.074,0,0,0,0-2.093,1.831,1.831,0,0,0-.281-.028h-2.353ZM156.268,0A4.073,4.073,0,0,0,152.2,4.076V8.3h5.761c.133,0,.3.01.4.015,1.3.067,2.259.74,2.259,1.9a1.93,1.93,0,0,1-1.845,1.87v.05c1.313.092,2.324.818,2.324,1.963,0,1.237-1.108,2.034-2.582,2.034H152.2v8.3h5.967a4.062,4.062,0,0,0,4.059-4.068V0Zm1.1,10.5a.967.967,0,0,0-.821-.975,1.816,1.816,0,0,0-.232-.019h-2.132v1.982h2.133a1.485,1.485,0,0,0,.232-.021.963.963,0,0,0,.82-.968Z" transform="translate(-129.668 0)" fill="#59a933" fill-rule="evenodd"/>
    <path id="Path_325" data-name="Path 325" d="M4.067,0A4.071,4.071,0,0,0,0,4.076V14.124a8.112,8.112,0,0,0,3.514.913A1.968,1.968,0,0,0,5.7,13.022V8.3H9.187v4.719c0,1.846-1.135,3.33-5.012,3.33A17.465,17.465,0,0,1,0,15.846v8.581H5.962a4.065,4.065,0,0,0,4.061-4.068V0Z" transform="translate(0 0)" fill="#0a5299" fill-rule="evenodd"/>
    <path id="Path_326" data-name="Path 326" d="M80.182,0A4.071,4.071,0,0,0,76.12,4.076V9.4c1.034-.888,2.807-1.437,5.7-1.308a18.349,18.349,0,0,1,3.191.487V10.3a7.893,7.893,0,0,0-3.073-.9c-2.2-.167-3.517.908-3.517,2.811s1.321,2.975,3.517,2.811a8,8,0,0,0,3.073-.9v1.721a18.276,18.276,0,0,1-3.189.485c-2.888.132-4.668-.422-5.7-1.306v9.4h5.962a4.058,4.058,0,0,0,4.055-4.068V0Z" transform="translate(-64.851 0)" fill="#e6182a" fill-rule="evenodd"/>
  </g>
  <g id="mastercard-8b5b68c12b7a2fc8619c71f49ef9209b" transform="translate(68.372 0)">
    <path id="Path_327" data-name="Path 327" d="M14.171,131.112v-1.669a.982.982,0,0,0-1.063-1.057,1.1,1.1,0,0,0-.951.473.98.98,0,0,0-.895-.473.9.9,0,0,0-.783.39v-.334H9.893v2.67h.587v-1.474c0-.473.252-.7.643-.7s.587.25.587.7v1.474H12.3v-1.474a.617.617,0,0,1,.643-.7c.392,0,.587.25.587.7v1.474h.643Zm8.7-2.67h-.95v-.807h-.587v.807H20.8v.529h.531v1.224c0,.612.252.974.923.974a1.569,1.569,0,0,0,.727-.195l-.168-.5a.925.925,0,0,1-.5.139c-.28,0-.391-.167-.391-.445v-1.2h.951v-.529Zm4.977-.056a.788.788,0,0,0-.7.389v-.334h-.587v2.67h.587v-1.5c0-.445.2-.7.559-.7a1.646,1.646,0,0,1,.363.056l.168-.556a1.858,1.858,0,0,0-.392-.028Zm-7.521.278a1.927,1.927,0,0,0-1.091-.278c-.671,0-1.118.334-1.118.862,0,.445.336.7.923.779l.28.028c.308.056.475.139.475.278,0,.195-.224.334-.615.334a1.549,1.549,0,0,1-.895-.278l-.28.445a1.985,1.985,0,0,0,1.146.334c.783,0,1.23-.362,1.23-.862,0-.473-.363-.723-.923-.807l-.28-.028c-.252-.028-.447-.083-.447-.25,0-.195.2-.306.5-.306a2.024,2.024,0,0,1,.839.223l.252-.473Zm15.6-.278a.789.789,0,0,0-.7.39v-.334h-.587v2.67h.587v-1.5c0-.445.2-.7.559-.7a1.644,1.644,0,0,1,.363.056l.168-.556a1.857,1.857,0,0,0-.391-.028Zm-7.494,1.391a1.34,1.34,0,0,0,1.426,1.391,1.4,1.4,0,0,0,.951-.306l-.28-.473a1.133,1.133,0,0,1-.7.251.792.792,0,0,1-.811-.862.822.822,0,0,1,.811-.862,1.133,1.133,0,0,1,.7.25l.28-.473a1.4,1.4,0,0,0-.951-.306,1.34,1.34,0,0,0-1.426,1.391Zm5.424,0v-1.335h-.587v.334a1.012,1.012,0,0,0-.839-.39,1.392,1.392,0,0,0,0,2.782.942.942,0,0,0,.839-.39v.334h.587Zm-2.153,0a.812.812,0,1,1,1.622,0,.812.812,0,1,1-1.622,0Zm-7.018-1.391a1.391,1.391,0,0,0,.028,2.782,1.716,1.716,0,0,0,1.09-.362l-.28-.417a1.34,1.34,0,0,1-.783.278.754.754,0,0,1-.811-.64h1.985V129.8a1.231,1.231,0,0,0-1.23-1.419Zm0,.5a.652.652,0,0,1,.671.64h-1.4A.707.707,0,0,1,24.684,128.886Zm14.568.89v-2.392h-.587v1.391a1.012,1.012,0,0,0-.839-.39,1.392,1.392,0,0,0,0,2.782.943.943,0,0,0,.839-.39v.334h.587Zm-2.153,0a.812.812,0,1,1,1.622,0,.812.812,0,1,1-1.622,0Zm-19.628,0v-1.335h-.587v.334a1.012,1.012,0,0,0-.839-.39,1.392,1.392,0,0,0,0,2.782.942.942,0,0,0,.839-.39v.334h.587v-1.335Zm-2.181,0a.812.812,0,1,1,1.622,0,.812.812,0,1,1-1.622,0Z" transform="translate(-8.252 -106.019)" fill-rule="evenodd"/>
    <path id="Path_328" data-name="Path 328" d="M70.373,13.2h8.763V28.944H70.373Z" transform="translate(-58.475 -11.056)" fill="#ff5f00" fill-rule="evenodd"/>
    <path id="Path_329" data-name="Path 329" d="M12.522,10.489a10.041,10.041,0,0,1,3.811-7.873A10.011,10.011,0,1,0,10.158,20.5a9.953,9.953,0,0,0,6.176-2.142A10,10,0,0,1,12.522,10.489Z" transform="translate(-0.143 -0.474)" fill="#eb001b" fill-rule="evenodd"/>
    <path id="Path_330" data-name="Path 330" d="M112.672,10.489a10,10,0,0,1-16.19,7.873,10.037,10.037,0,0,0,0-15.745,10,10,0,0,1,16.19,7.873Z" transform="translate(-80.114 -0.474)" fill="#f79e1b" fill-rule="evenodd"/>
  </g>
  <g id="visa-91c71914c6ae23d33f896e60bb1e3859" transform="translate(0 2.921)">
    <path id="Path_331" data-name="Path 331" d="M46.424,14.782l-.761,3.84a30.046,30.046,0,0,0,5.519,1.013c2.449,0,7.042-.624,8.3-4.365s-1.028-5.574-3.2-6.821-3.844-1.91-3.235-3.235,4.91-1.481,6.889-.156L60.621,1.2A11.932,11.932,0,0,0,54.645.458C50.839.9,48.276,2.8,47.908,5.019a4.6,4.6,0,0,0,2.4,5.379c2.474,1.52,4.453,2.1,4.339,3.625s-2.664,1.988-4.8,1.637a17.52,17.52,0,0,1-3.426-.878m20.959-1.825,2.675-7.2,1.474,7.2H67.382Zm5.505,6.625h4.519L73.476.619H69.337a2.238,2.238,0,0,0-1.675.674,11.4,11.4,0,0,0-1.37,2.566L59.9,19.582h5.024l1.056-2.843h6.328ZM40.638.619,37.517,19.582h5.024L45.662.619H40.638Zm-7.346,0L28.406,13.431l-.731-2.856a20.071,20.071,0,0,0-6.628-7.547l4.29,16.554H30.7L38.469.619Z" transform="translate(-15.614 -0.371)" fill="#015396" fill-rule="evenodd"/>
    <path id="Path_332" data-name="Path 332" d="M0,1.486H7.521A3.335,3.335,0,0,1,10.105,2.6c.54.873,2.044,8.807,2.044,8.807S8.562,3.549,0,1.486" transform="translate(0 -1.198)" fill="#ec9f24" fill-rule="evenodd"/>
  </g>
</svg>
