<svg xmlns="http://www.w3.org/2000/svg" width="100%" height="100%" viewBox="0 0 84 67.197">
  <path id="Icon_awesome-people-carry" data-name="Icon awesome-people-carry" d="M16.8,12.6a6.3,6.3,0,1,0-6.3-6.3A6.3,6.3,0,0,0,16.8,12.6Zm50.4,0a6.3,6.3,0,1,0-6.3-6.3A6.3,6.3,0,0,0,67.2,12.6ZM83.7,61.435,77.92,47l-5.394,6.09-.262,2.389L75.9,64.559A4.2,4.2,0,0,0,79.8,67.2a4.08,4.08,0,0,0,1.562-.3A4.2,4.2,0,0,0,83.7,61.435ZM79.207,33.9,76.779,23.375a8.505,8.505,0,0,0-4.922-5.893,8.1,8.1,0,0,0-7.363.433,14.379,14.379,0,0,0-6.313,7.8L56.7,30.16,54.6,31.5V18.9a2.106,2.106,0,0,0-2.1-2.1h-21a2.106,2.106,0,0,0-2.1,2.1V31.5L27.287,30.16,25.8,25.711a14.277,14.277,0,0,0-6.313-7.8,8.1,8.1,0,0,0-7.363-.433,8.505,8.505,0,0,0-4.922,5.893L4.791,33.9a8.409,8.409,0,0,0,1.89,7.442L15.5,51.3l1.326,12.153A4.2,4.2,0,0,0,21,67.2c.157,0,.3-.013.459-.026a4.193,4.193,0,0,0,3.714-4.633L23.848,50.358A8.388,8.388,0,0,0,21.8,45.765l-5.683-6.431,2.31-9.226.892,2.677a8.488,8.488,0,0,0,3.215,4.279l6.707,4.265a5.588,5.588,0,0,0,2.257.656h21a5.588,5.588,0,0,0,2.257-.656l6.707-4.265a8.435,8.435,0,0,0,3.215-4.279l.892-2.677,2.31,9.226L62.2,45.765a8.388,8.388,0,0,0-2.047,4.594L58.824,62.538a4.2,4.2,0,0,0,3.714,4.633c.157.013.3.026.459.026a4.2,4.2,0,0,0,4.174-3.74L68.5,51.3l8.82-9.961A8.447,8.447,0,0,0,79.207,33.9ZM6.078,47,.3,61.435a4.2,4.2,0,0,0,7.8,3.124l3.635-9.082-.262-2.389L6.078,47Z" transform="translate(0.001)" fill="#fff"/>
</svg>
