<svg xmlns="http://www.w3.org/2000/svg" width="100%" height="100%" viewBox="0 0 44.534 27.466">
  <path id="Icon_awesome-retweet" data-name="Icon awesome-retweet" d="M44.273,24.159l-7.079,7.079a1.688,1.688,0,0,1-2.386,0l-7.08-7.079a1.687,1.687,0,0,1,0-2.386l.761-.761a1.688,1.688,0,0,1,2.42.035l2.842,3.009V11.25H20.563a1.688,1.688,0,0,1-1.193-.494L18.245,9.631A1.688,1.688,0,0,1,19.438,6.75H36.563A1.687,1.687,0,0,1,38.25,8.438V24.055l2.842-3.009a1.688,1.688,0,0,1,2.42-.035l.761.761a1.687,1.687,0,0,1,0,2.386ZM25.63,25.244a1.687,1.687,0,0,0-1.193-.494H11.25V11.945l2.842,3.009a1.688,1.688,0,0,0,2.42.035l.761-.761a1.687,1.687,0,0,0,0-2.386L10.193,4.761a1.687,1.687,0,0,0-2.386,0L.727,11.841a1.687,1.687,0,0,0,0,2.386l.761.761a1.688,1.688,0,0,0,2.42-.035L6.75,11.945V27.563A1.687,1.687,0,0,0,8.438,29.25H25.562a1.688,1.688,0,0,0,1.193-2.881L25.63,25.244Z" transform="translate(-0.233 -4.267)" fill="#fff"/>
</svg>
