<svg xmlns="http://www.w3.org/2000/svg" width="100%" height="100%" viewBox="0 0 40 40">
  <g id="Auctions" transform="translate(-161 -184)">
    <circle id="Ellipse_98" data-name="Ellipse 98" cx="20" cy="20" r="20" transform="translate(161 184)" fill="#ffab91"/>
    <path id="Icon_metro-hammer" data-name="Icon metro-hammer" d="M21.742,19.038l-9.094-8.02.558-.559a2.557,2.557,0,0,0,.741-1.651c.022-.01.044-.02.065-.031L16.259,7.37a.946.946,0,0,0-.05-1.256L12.3,2.193a.94.94,0,0,0-1.252-.05L9.644,4.4c-.011.021-.022.043-.031.065a2.543,2.543,0,0,0-1.646.742L5.839,7.338A2.557,2.557,0,0,0,5.1,8.989c-.022.01-.044.02-.065.032L2.785,10.427a.946.946,0,0,0,.05,1.255L6.746,15.6A.94.94,0,0,0,8,15.654L9.4,13.4c.012-.021.022-.043.031-.065a2.543,2.543,0,0,0,1.646-.742l.618-.619L22.572,23.984a.75.75,0,0,0,1.08.125l1.1-1.1C25.03,22.726,22.089,19.354,21.742,19.038Z" transform="translate(166.92 190.115)" fill="#fff"/>
  </g>
</svg>
