<svg xmlns="http://www.w3.org/2000/svg" width="100%" height="100%" viewBox="0 0 40 40">
  <g id="Raffles" transform="translate(-142 -64)">
    <circle id="Ellipse_87" data-name="Ellipse 87" cx="20" cy="20" r="20" transform="translate(142 64)" fill="#d4af37"/>
    <path id="Icon_awesome-ticket-alt" data-name="Icon awesome-ticket-alt" d="M5.4,8.548H18.889v8.1H5.4ZM22.262,12.6a2.024,2.024,0,0,0,2.024,2.024v4.048a2.024,2.024,0,0,1-2.024,2.024H2.024A2.024,2.024,0,0,1,0,18.667V14.619A2.024,2.024,0,0,0,2.024,12.6,2.024,2.024,0,0,0,0,10.571V6.524A2.024,2.024,0,0,1,2.024,4.5H22.262a2.024,2.024,0,0,1,2.024,2.024v4.048A2.024,2.024,0,0,0,22.262,12.6ZM20.238,8.21A1.012,1.012,0,0,0,19.226,7.2H5.06A1.012,1.012,0,0,0,4.048,8.21v8.77A1.012,1.012,0,0,0,5.06,17.992H19.226a1.012,1.012,0,0,0,1.012-1.012Z" transform="translate(149.858 71.358)" fill="#fff"/>
  </g>
</svg>
