<svg xmlns="http://www.w3.org/2000/svg" width="100%" height="100%" viewBox="0 0 40 40">
  <g id="Shoppings" transform="translate(-142 -64)">
    <circle id="Ellipse_85" data-name="Ellipse 85" cx="20" cy="20" r="20" transform="translate(142 64)" fill="#80cbc4"/>
    <path id="Icon_awesome-shopping-bag" data-name="Icon awesome-shopping-bag" d="M16.051,7.3V5.837a5.837,5.837,0,0,0-11.673,0V7.3H0V19.7a3.648,3.648,0,0,0,3.648,3.648H16.781A3.648,3.648,0,0,0,20.429,19.7V7.3ZM7.3,5.837a2.918,2.918,0,1,1,5.837,0V7.3H7.3Zm7.3,5.472a1.094,1.094,0,1,1,1.094-1.094A1.094,1.094,0,0,1,14.592,11.309Zm-8.755,0a1.094,1.094,0,1,1,1.094-1.094A1.094,1.094,0,0,1,5.837,11.309Z" transform="translate(151.857 71.144)" fill="#fff"/>
  </g>
</svg>
