<svg id="good" data-name="good" xmlns="http://www.w3.org/2000/svg" width="100%" height="100%" viewBox="0 0 50 50">
  <circle id="good" data-name="very-good" cx="25" cy="25" r="24" fill="#f06565"/>
  <path id="Path_6" data-name="Path 6" d="M24.485,13.742A1.742,1.742,0,1,1,22.742,12,1.742,1.742,0,0,1,24.485,13.742Z" transform="translate(11.834 4.417)" fill="#fff"/>
  <path id="Path_7" data-name="Path 7" d="M13.985,13.742A1.742,1.742,0,1,1,12.242,12,1.742,1.742,0,0,1,13.985,13.742Z" transform="translate(3.181 4.417)" fill="#fff"/>
  <path id="Path_8" data-name="Path 8" d="M27.975,3A25,25,0,1,0,53,28,24.988,24.988,0,0,0,27.975,3ZM28,48A20,20,0,1,1,48,28,19.994,19.994,0,0,1,28,48Zm0-10a9.992,9.992,0,0,1-8.625-5H15.2a13.737,13.737,0,0,0,25.6,0H36.625A9.992,9.992,0,0,1,28,38Z" transform="translate(-3 -3)" fill="#fff"/>
</svg>
