<svg xmlns="http://www.w3.org/2000/svg" width="100%" height="100%" viewBox="0 0 50 50">
  <circle id="very-bad" data-name="very-bad" cx="25" cy="25" r="24" fill="#A362D8"/>
  <path id="very-bad" data-name="very-bad" d="M27.975,3A25,25,0,1,0,53,28,24.972,24.972,0,0,0,27.975,3ZM28,48A20,20,0,1,1,48,28,19.994,19.994,0,0,1,28,48ZM38.45,17.4,35.8,20.05,33.15,17.4,30.5,20.05l2.65,2.65L30.5,25.35,33.15,28l2.65-2.65L38.45,28l2.65-2.65L38.45,22.7l2.65-2.65ZM17.55,28l2.65-2.65L22.85,28l2.65-2.65L22.85,22.7l2.65-2.65L22.85,17.4,20.2,20.05,17.55,17.4,14.9,20.05l2.65,2.65L14.9,25.35ZM28,33a13.741,13.741,0,0,0-12.775,8.75h25.55A13.741,13.741,0,0,0,28,33Z" transform="translate(-3 -3)" fill="#fff"/>
</svg>
