<svg xmlns="http://www.w3.org/2000/svg" width="100%" height="100%" viewBox="0 0 50 50">
  <circle id="Very_good_icon" data-name="very-good" cx="25" cy="25" r="24" fill="#fe97fd"/>
  <path id="very-good" data-name="very-good" d="M27.975,3A25,25,0,1,0,53,28,24.972,24.972,0,0,0,27.975,3ZM28,48A20,20,0,1,1,48,28,19.994,19.994,0,0,1,28,48Zm2.5-25.15,2.65,2.65,2.65-2.65,2.65,2.65,2.65-2.65-5.3-5.3Zm-10.3,0,2.65,2.65,2.65-2.65-5.3-5.3-5.3,5.3,2.65,2.65ZM28,41.75A13.741,13.741,0,0,0,40.775,33H15.225A13.741,13.741,0,0,0,28,41.75Z" transform="translate(-3 -3)" fill="#fff"/>
</svg>
