<svg
  data-name="instagram-icon"
  xmlns="http://www.w3.org/2000/svg"
  xmlns:xlink="http://www.w3.org/1999/xlink"
  width="100%"
  height="100%"
  viewBox="0 0 32 32"
>
  <defs>
    <linearGradient
      id="linear-gradient-instagram"
      x1="0.101"
      y1="0.21"
      x2="0.809"
      y2="0.855"
      gradientUnits="objectBoundingBox"
    >
      <stop offset="0" stop-color="#ffa000" />
      <stop offset="1" stop-color="#d500f9" />
    </linearGradient>
  </defs>
  <circle
    id="Ellipse_79"
    data-name="Ellipse 79"
    cx="16"
    cy="16"
    r="16"
    fill="url(#linear-gradient-instagram)"
  />
  <path id="Icon_simple-instagram" data-name="icon-simple-instagram" d="M7.5,0C5.462,0,5.208.009,4.408.045A5.53,5.53,0,0,0,2.587.394a3.673,3.673,0,0,0-1.329.865A3.659,3.659,0,0,0,.394,2.587,5.514,5.514,0,0,0,.045,4.408C.007,5.208,0,5.462,0,7.5s.009,2.292.045,3.092a5.534,5.534,0,0,0,.349,1.821,3.678,3.678,0,0,0,.865,1.329,3.668,3.668,0,0,0,1.329.865,5.537,5.537,0,0,0,1.821.349c.8.037,1.054.045,3.092.045s2.292-.009,3.092-.045a5.55,5.55,0,0,0,1.821-.349,3.833,3.833,0,0,0,2.194-2.194,5.534,5.534,0,0,0,.349-1.821c.038-.8.045-1.054.045-3.092s-.009-2.292-.045-3.092a5.547,5.547,0,0,0-.349-1.821,3.681,3.681,0,0,0-.865-1.329A3.654,3.654,0,0,0,12.412.394,5.518,5.518,0,0,0,10.592.045C9.792.007,9.537,0,7.5,0Zm0,1.35c2,0,2.241.01,3.031.044a4.132,4.132,0,0,1,1.392.259,2.468,2.468,0,0,1,1.424,1.423A4.141,4.141,0,0,1,13.6,4.469c.036.791.044,1.029.044,3.031s-.009,2.241-.046,3.031a4.221,4.221,0,0,1-.263,1.392,2.381,2.381,0,0,1-.562.864,2.34,2.34,0,0,1-.863.56,4.171,4.171,0,0,1-1.4.258c-.8.036-1.031.044-3.037.044S5.24,13.639,4.444,13.6a4.253,4.253,0,0,1-1.4-.263,2.323,2.323,0,0,1-.862-.562,2.277,2.277,0,0,1-.562-.863,4.256,4.256,0,0,1-.262-1.4c-.028-.787-.038-1.031-.038-3.027s.01-2.241.038-3.038a4.252,4.252,0,0,1,.262-1.4,2.223,2.223,0,0,1,.562-.863,2.218,2.218,0,0,1,.862-.561,4.151,4.151,0,0,1,1.388-.263c.8-.028,1.031-.037,3.037-.037L7.5,1.35Zm0,2.3A3.851,3.851,0,1,0,11.351,7.5,3.851,3.851,0,0,0,7.5,3.649ZM7.5,10A2.5,2.5,0,1,1,10,7.5,2.5,2.5,0,0,1,7.5,10Zm4.9-6.5a.9.9,0,1,1-.9-.9A.9.9,0,0,1,12.4,3.5Z" transform="translate(8.5 8.5)" fill="#fff" />
</svg>
